<?xml version="1.0" encoding="UTF-8" standalone="no"?>
<!-- Created with Inkscape (http://www.inkscape.org/) -->

<svg
   version="1.1"
   id="svg815"
   width="400"
   height="400"
   viewBox="0 0 400 400"
   sodipodi:docname="janNe.svg"
   inkscape:version="1.4.2 (f4327f4, 2025-05-13)"
   xmlns:inkscape="http://www.inkscape.org/namespaces/inkscape"
   xmlns:sodipodi="http://sodipodi.sourceforge.net/DTD/sodipodi-0.dtd"
   xmlns="http://www.w3.org/2000/svg"
   xmlns:svg="http://www.w3.org/2000/svg"
   xmlns:rdf="http://www.w3.org/1999/02/22-rdf-syntax-ns#"
   xmlns:cc="http://creativecommons.org/ns#"
   xmlns:dc="http://purl.org/dc/elements/1.1/">
  <metadata
     id="metadata821">
    <rdf:RDF>
      <cc:Work
         rdf:about="">
        <dc:format>image/svg+xml</dc:format>
        <dc:type
           rdf:resource="http://purl.org/dc/dcmitype/StillImage" />
      </cc:Work>
    </rdf:RDF>
  </metadata>
  <defs
     id="defs819" />
  <sodipodi:namedview
     pagecolor="#ffffff"
     bordercolor="#666666"
     borderopacity="1"
     objecttolerance="10"
     gridtolerance="10"
     guidetolerance="10"
     inkscape:pageopacity="0"
     inkscape:pageshadow="2"
     inkscape:window-width="2256"
     inkscape:window-height="1380"
     id="namedview817"
     showgrid="false"
     inkscape:zoom="1.34"
     inkscape:cx="232.08955"
     inkscape:cy="208.20896"
     inkscape:window-x="-12"
     inkscape:window-y="-12"
     inkscape:window-maximized="1"
     inkscape:current-layer="svg815"
     inkscape:showpageshadow="2"
     inkscape:pagecheckerboard="0"
     inkscape:deskcolor="#d1d1d1" />
  <path
     style="fill:#ffffff"
     d="m 294.25635,116.90662 c -47.05821,-0.074 -63.4131,0.93105 -80.78126,4.95899 -12.87551,2.98603 -23.87278,10.96709 -28.99219,21.04297 -3.52921,6.9461 -6.96604,19.60645 -8.75,32.23242 -2.92702,20.71586 -0.96652,56.37941 4.00781,72.90039 4.5204,15.0134 21.18298,24.97007 47.42188,28.33594 7.4954,0.96149 39.6685,0.37857 57.59376,-1.04297 6.6,-0.5234 20.55,-0.96394 31,-0.97852 19.87567,-0.0277 33.67817,-1.2033 41.83789,-3.56445 12.97837,-3.7555 21.90999,-14.44192 25.13671,-30.07617 3.56642,-17.28011 5.39763,-80.40531 2.6504,-91.37891 -3.45169,-13.7875 -11.2551,-23.8593 -21.5293,-27.79101 -9.95495,-3.80954 -21.24295,-4.56262 -69.5957,-4.63868 z m -216.335947,1.62696 c -7.73909,0.0383 -15.52529,0.78076 -19.75,2.13672 -21.333316,6.84708 -37.140776,24.92832 -43.527346,49.78711 -3.65569,14.22924 0.3596,36.12124 9.01563,49.1621 4.47611,6.74354 13.77243,15.44542 21.83008,20.43164 l 5.730466,3.54493 -7.287106,7.74609 c -5.12049,5.4431 -8.68211,10.47848 -11.98047,16.93164 -4.93787,9.6608 -5.66205,12.75369 -3.20313,13.69727 1.74953,0.67135 21.685566,-18.88114 28.455076,-27.90821 2.94189,-3.92297 4.84609,-5.61625 5.94141,-5.28125 5.41392,1.65586 17.71166,2.71316 25.11328,2.15821 l 8.5,-0.63868 5.468747,8.26758 c 6.50969,9.84322 20.69076,24.99032 22.95508,24.51758 1.01742,-0.21241 1.51024,-1.27137 1.39258,-2.99414 -0.25842,-3.78294 -10.64505,-24.50403 -14.61329,-29.15234 l -3.32617,-3.89453 8.56055,-4.3125 c 24.83049,-12.50838 36.0933,-31.44213 34.73633,-58.39649 -1.68287,-33.4278 -23.28915,-57.59277 -57.734377,-64.57226 -4.26759,-0.86473 -10.25805,-1.2603 -16.27734,-1.23047 z m 179.585947,5.76367 c 8.26237,0.01 17.40945,0.34723 27.48046,1.00976 8.12373,0.53444 23.09454,1.45457 33.26954,2.04297 33.14945,1.91697 40.72867,3.41863 46.83398,9.2793 4.1701,4.00301 6.59601,8.67916 8.04297,15.50586 2.2274,10.5087 0.69722,77.88116 -2.02149,88.99805 -2.38417,9.74891 -7.10304,16.04305 -14.51562,19.35742 -2.28907,1.02351 -9.93907,2.79378 -17,3.93359 -11.16985,1.80308 -18.36241,2.12229 -55.33984,2.45508 -32.71255,0.29442 -44.68779,0.0619 -52.00001,-1.00781 -17.99429,-2.63236 -33.24308,-8.9168 -37.58008,-15.48828 -6.43682,-9.75316 -10.51827,-53.5051 -7.37696,-79.07422 3.21988,-26.20864 10.14451,-36.64115 28.07618,-42.29688 10.05494,-3.17137 23.95363,-4.73637 42.13087,-4.71484 z m -180.750007,6.5625 c 19.84246,0.0304 33.878887,5.24311 46.744137,17.35742 11.94611,11.24883 17.21819,25.39283 16.60937,44.56445 -0.32521,10.24088 -0.61574,11.6312 -3.75976,18.01758 -6.44153,13.08456 -20.75105,24.43455 -37.509767,29.75195 -5.99917,1.90349 -25.87579,3.26001 -31.58398,2.15626 -5.6869,-1.09965 -9.91011,-2.86197 -17.36524,-7.2461 -8.758786,-5.15078 -16.691866,-13.06383 -20.906246,-20.85351 -6.20462,-11.46835 -8.49025,-30.28666 -5.11523,-42.11719 3.61701,-12.67877 13.61483,-27.29515 23.13672,-33.82422 8.508216,-5.83401 16.105166,-7.82752 29.749996,-7.80664 z m 252.632817,14.52344 c -3.27328,-0.0994 -6.61895,0.56117 -8.82813,1.9082 -7.7022,4.69633 -8.91796,12.11674 -4.32226,26.38476 1.74331,5.41238 2.93206,10.07965 2.64062,10.3711 -1.00648,1.00647 -12.13558,3.25787 -16.18164,3.27344 -2.23238,0.009 -4.93238,0.66174 -6,1.45312 -1.82694,1.35424 -1.84047,1.54188 -0.24219,3.16406 1.55871,1.58204 2.65412,1.62176 13.33594,0.48047 6.40065,-0.68387 11.86272,-1.01812 12.13867,-0.74219 0.70294,0.70295 2.27403,7.72575 2.30274,10.29297 0.0232,2.07564 -0.0909,2.09215 -4.22656,0.65235 -5.97212,-2.07918 -19.74791,-1.32224 -25.8711,1.41992 -9.1859,4.11373 -16.799,13.4103 -16.85547,20.58398 -0.0321,4.07395 3.4327,10.19297 7.55078,13.33399 8.70215,6.63745 25.26822,8.5254 35.00782,3.99023 6.71872,-3.12852 11.90963,-8.63976 14.39453,-15.28125 1.11293,-2.97458 2.02344,-5.83977 2.02344,-6.36914 0,-1.43776 0.75318,-1.20383 4.67187,1.45899 1.96118,1.33266 4.18763,2.18603 4.94727,1.89453 2.59927,-0.99743 1.28142,-3.81667 -3.6543,-7.81641 -4.665,-3.78036 -4.93581,-4.26395 -4.94922,-8.79297 -0.008,-2.63569 -0.71703,-8.19417 -1.57617,-12.35351 -0.85913,-4.15934 -1.42163,-7.64715 -1.25,-7.75 0.17164,-0.10284 2.16858,-1.37675 4.43945,-2.83008 12.91028,-8.26244 10.39772,-32.29251 -3.94336,-37.71094 -1.65035,-0.62355 -3.58876,-0.95601 -5.55273,-1.01562 z m -88.47657,2.53711 c -8.74557,0.0361 -14.06369,2.22224 -21.28711,8.75 -6.14561,5.55376 -12.56621,17.23084 -15.00586,27.28906 -1.73621,7.15809 -2.22666,32.45786 -0.82618,42.64062 0.58119,4.22575 0.94208,4.80986 2.81446,4.54297 2.03858,-0.29058 2.21295,-1.14853 3.4043,-16.75976 0.74189,-9.7216 2.1149,-19.63483 3.35546,-24.23243 4.65219,-17.24125 16.04632,-29.81445 27.01954,-29.81445 5.92984,0 8.7145,1.04711 13.1543,4.94531 7.64461,6.71205 9.44564,14.75649 10.53321,47.05664 0.41669,12.3758 1.11926,23.08753 1.5625,23.80469 0.44323,0.71716 1.55167,1.16068 2.46289,0.98633 1.38843,-0.26566 1.92814,-3.14878 3.32812,-17.80469 3.27806,-34.31697 2.08227,-46.95483 -5.51172,-58.2832 -3.50001,-5.22117 -5.24471,-6.75615 -11.0039,-9.67774 -5.94847,-3.0176 -7.78147,-3.46902 -14.00001,-3.44335 z m 87.97657,8.57226 c 0.35899,-0.01 0.74388,0.003 1.15234,0.0371 7.36506,0.61799 10.84973,11.62241 5.96485,18.83203 -3.26842,4.82388 -4.48904,4.74728 -6.70313,-0.41797 -5.62249,-13.11673 -5.79899,-18.30562 -0.41406,-18.45117 z m -16.8086,52.92383 c 2.53326,0.0408 5.13114,0.38356 7.73438,1.03906 4.08884,1.02959 4.43883,1.36821 4.39844,4.25 -0.057,4.06269 -2.27464,10.21897 -4.60938,12.79883 -3.45983,3.82307 -10.19863,5.93531 -16.34765,5.12305 -7.28787,-0.96269 -9.1992,-1.5895 -11.96875,-3.91992 -4.29663,-3.61539 -3.9814,-6.68462 1.22656,-11.89258 4.9361,-4.93611 11.96665,-7.52083 19.5664,-7.39844 z"
     id="path873"
     inkscape:connector-curvature="0" />
</svg>
