<?xml version="1.0" encoding="UTF-8" standalone="no"?>
<!-- Created with Inkscape (http://www.inkscape.org/) -->

<svg
   width="500"
   height="500"
   viewBox="0 0 132.29166 132.29167"
   version="1.1"
   id="svg5"
   inkscape:export-filename="C:\Users\Natha\Pictures\Pictures\laso-tu.png"
   inkscape:export-xdpi="1199.99"
   inkscape:export-ydpi="1199.99"
   inkscape:version="1.1 (c68e22c387, 2021-05-23)"
   sodipodi:docname="laso-tu.svg"
   xmlns:inkscape="http://www.inkscape.org/namespaces/inkscape"
   xmlns:sodipodi="http://sodipodi.sourceforge.net/DTD/sodipodi-0.dtd"
   xmlns="http://www.w3.org/2000/svg"
   xmlns:svg="http://www.w3.org/2000/svg">
  <sodipodi:namedview
     id="namedview7"
     pagecolor="#ffffff"
     bordercolor="#666666"
     borderopacity="1.0"
     inkscape:pageshadow="2"
     inkscape:pageopacity="0.0"
     inkscape:pagecheckerboard="0"
     inkscape:document-units="mm"
     showgrid="false"
     units="px"
     inkscape:zoom="0.70710678"
     inkscape:cx="235.46656"
     inkscape:cy="287.79246"
     inkscape:window-width="1366"
     inkscape:window-height="705"
     inkscape:window-x="-8"
     inkscape:window-y="-8"
     inkscape:window-maximized="1"
     inkscape:current-layer="layer1" />
  <defs
     id="defs2" />
  <g
     inkscape:label="Layer 1"
     inkscape:groupmode="layer"
     id="layer1">
    <g
       id="g5360"
       transform="translate(-38.854165,-82.354164)">
      <path
         style="fill:#5898fd;stroke-width:0.264583"
         d="m 68.539398,188.75126 c -3.122206,-0.80155 -5.383777,-2.83514 -7.343424,-6.60314 -1.903746,-3.6605 -4.060976,-8.7309 -4.920763,-11.56582 -0.418755,-1.38074 -1.133342,-3.72219 -1.587976,-5.20323 -0.454625,-1.48104 -1.060985,-3.95695 -1.347457,-5.50203 -0.286472,-1.54508 -0.656904,-3.47315 -0.82318,-4.2846 -0.964003,-4.70453 -0.411894,-14.01151 1.190681,-20.07122 1.16718,-4.41339 1.550175,-5.4663 3.2782,-9.01246 2.867769,-5.88505 4.240595,-7.77467 8.422818,-11.59354 4.350013,-3.97207 7.000222,-5.48478 11.835306,-6.75541 5.277059,-1.38678 9.409715,-1.76398 13.046649,-1.19079 4.322609,0.68124 8.748499,2.44728 13.017088,5.19415 l 1.04453,0.67216 1.68846,-0.90827 c 3.15443,-1.69686 10.70453,-3.3394 16.19405,-3.52307 5.02426,-0.16811 8.20492,0.39249 12.92419,2.27792 3.67234,1.46716 6.40179,2.9748 8.02617,4.43337 0.39377,0.35358 1.23286,1.01532 1.86464,1.47055 3.59469,2.59006 7.78,8.53206 9.99776,14.19408 1.84142,4.70125 2.36553,6.67268 2.67235,10.05222 0.77933,8.58387 -0.29705,14.91176 -3.87411,22.77517 -3.32894,7.31799 -8.50191,14.00998 -13.92675,18.01629 -5.30331,3.91655 -9.28336,5.89585 -14.18617,7.05486 -7.52802,1.7796 -7.308,1.75418 -12.6222,1.45842 -4.66284,-0.25951 -5.08337,-0.32762 -9.15834,-1.48274 -2.34908,-0.66591 -5.098861,-1.55933 -6.110599,-1.98536 -1.847473,-0.77796 -9.031884,-4.65289 -10.225004,-5.51488 -0.632779,-0.45717 -0.658483,-0.44323 -3.029083,1.64196 -2.771989,2.43825 -4.990975,3.84738 -7.802462,4.95481 -3.487561,1.37373 -5.73132,1.64602 -8.245374,1.0006 z"
         id="path1246" />
      <path
         style="fill:#387ae3;fill-opacity:0.666667;stroke-width:0.264583"
         d="m 67.062886,188.27653 c -0.299712,-0.0962 -0.535789,-0.70734 -0.745192,-1.92918 -1.208611,-7.0521 -2.012697,-20.95162 -1.311371,-22.66854 0.585868,-1.43427 2.416155,-1.41817 3.259373,0.0287 0.324868,0.55741 0.352239,2.16724 0.165909,9.75729 -0.122732,4.99936 -0.196638,9.98533 -0.164235,11.07994 l 0.05891,1.99019 2.255406,-4.12609 c 1.240471,-2.26935 2.934973,-5.07253 3.765553,-6.22929 2.264203,-3.15336 3.315215,-3.69898 4.528876,-2.35105 1.163553,1.29227 0.938781,1.7033 -4.537988,8.29828 -5.345387,6.43677 -5.630316,6.67762 -7.275242,6.14978 z m 56.242924,-66.20412 c -4.55207,-0.71056 -11.60407,-4.0107 -17.4265,-8.15516 l -1.50361,-1.07029 1.18215,-0.6581 c 0.58524,-0.33818 1.29176,-0.67093 1.379,-0.69056 0.10609,0.0196 2.28351,0.97715 4.5375,2.02926 7.84937,3.66386 11.69159,4.9106 15.01846,4.87325 1.50405,-0.0169 1.9887,-0.0942 2.64724,-0.68102 1.50609,-1.51908 0.39941,-3.4325 -4.23936,-4.03477 -2.06209,-0.26773 -2.19812,-0.32319 -2.16866,-0.88526 0.0265,-0.50646 0.24111,-0.63327 1.38053,-0.81587 3.20095,-0.51294 6.25218,0.1601 7.62305,1.68148 2.2448,2.49127 1.3209,6.10009 -1.96386,7.67091 -2.10939,0.79923 -3.02053,0.99067 -6.46594,0.73613 z"
         id="path1020"
         sodipodi:nodetypes="sssssscsssscsccccscssssccsc" />
      <path
         d="m 93.361414,161.88305 c -4.7602,-0.70048 -7.860823,-0.16502 -12.267392,2.11849 -2.719312,1.40917 -3.7954,1.58336 -4.86057,0.78677 -1.387789,-1.03786 -1.238208,-1.46536 4.891823,-13.98043 7.599841,-15.51579 7.312,-14.82844 7.069647,-16.88144 -0.254457,-2.15555 -0.920462,-4.24945 -2.097742,-6.59523 -1.122177,-2.23598 -2.007002,-3.0028 -3.299193,-2.85918 -2.144205,0.23832 -1.647375,2.37674 1.163052,5.00587 1.885981,1.76432 2.190544,2.54057 1.00336,2.55737 -1.72112,0.0243 -4.856796,-2.11948 -6.100974,-4.17117 -2.543862,-4.19489 0.98845,-8.44387 5.976272,-7.1888 1.284927,0.32332 2.458121,1.27844 3.36084,2.73612 l 0.72355,1.16835 0.529891,-1.10775 c 1.618234,-3.38301 5.640264,-4.00568 7.950466,-1.87333 1.178972,1.08821 1.400432,2.67237 1.456839,3.8856 0.140791,3.02825 -1.311087,5.34848 -3.367654,6.31884 -0.961472,0.45365 -2.215389,0.77783 -2.3807,0.13606 -0.04608,-0.179 0.313879,-0.55085 1.084439,-1.30733 1.769089,-1.73677 1.954244,-2.70605 1.971218,-4.32777 0.01981,-1.89817 -1.709752,-2.59764 -2.572766,-2.00913 -1.84222,1.25622 -2.839635,6.68139 -3.160614,9.96058 l -0.165455,1.69031 3.206955,4.08395 c 5.394808,6.87013 8.443224,11.73125 12.043314,18.18287 2.39622,4.29421 3.08322,6.72159 2.39917,7.03328 -0.66685,0.30386 -1.64038,0.0892 -3.83436,-0.59299 -2.19397,-0.68222 -8.085223,-2.38169 -10.723416,-2.76991 z m 12.411756,0.94667 c -0.27186,-0.39367 -1.50372,-1.90108 -2.73746,-3.3498 -2.48418,-2.91705 -5.772084,-7.48377 -8.115987,-11.27266 -1.424337,-2.30243 -5.240656,-9.32391 -5.52481,-10.16487 -0.0691,-0.20447 -0.439438,0.5787 -0.82298,1.74038 -1.287489,3.8995 -5.364073,14.84961 -6.459994,17.35222 l -1.085253,2.47823 1.414186,-0.52547 c 5.313856,-1.97445 11.667823,-1.08643 20.152738,2.81649 1.91381,0.88032 3.52334,1.60973 3.57675,1.62091 0.0534,0.0112 -0.12532,-0.30176 -0.39719,-0.69543 z"
         style="fill:#ffffff;stroke-width:0.0700042"
         id="path4019" />
      <path
         d="m 119.69734,170.34622 c -0.1772,-0.32342 -0.91473,-7.38176 -1.17005,-11.19748 -0.20431,-3.05351 0.37851,-15.78253 0.87343,-19.0762 0.31127,-2.07146 0.81051,-2.73951 1.45067,-1.9412 0.26508,0.33054 0.76608,4.37339 1.33138,10.74361 0.48618,5.47838 -0.29588,19.36947 -1.20553,21.41318 -0.18743,0.42109 -1.05933,0.46067 -1.27989,0.0581 z m 9.60306,-1.65111 c -0.3133,-0.57186 -1.1701,-9.91844 -1.26337,-13.78181 -0.0876,-3.62771 0.43623,-11.82454 0.98395,-15.39751 0.23842,-1.55527 0.79213,-2.12211 1.38103,-1.41378 0.36456,0.4385 1.36935,9.37411 1.52205,13.53555 0.2121,5.78054 -0.68985,16.20074 -1.47822,17.07781 -0.35124,0.39075 -0.92583,0.38058 -1.14544,-0.0203 z"
         style="fill:#ffffff;stroke-width:0.0700042"
         id="path4293" />
    </g>
  </g>
</svg>
