<svg xmlns="http://www.w3.org/2000/svg" viewBox="0 0 43.706 44.252"><path d="M43.706 44.252V20.489L21.853 0 0 20.489v23.763z"/><g fill="#fff"><path d="M32.301 36.613V16.05H14.268v20.563zM15.794 35.1V17.563h14.982V35.1zm4.316-14.163c0-.881-.707-1.588-1.588-1.588-.88 0-1.587.707-1.587 1.588a1.59 1.59 0 0 0 1.587 1.587c.88 0 1.588-.72 1.588-1.587zm9.525 0c0-.881-.707-1.588-1.588-1.588-.88 0-1.587.707-1.587 1.588a1.59 1.59 0 0 0 1.587 1.587c.88 0 1.588-.72 1.588-1.587zm-4.763-.633c0-.88-.707-1.587-1.587-1.587s-1.588.706-1.588 1.587a1.59 1.59 0 0 0 1.588 1.588c.88 0 1.587-.72 1.587-1.588z"/><path d="M29.163 26.666l-1.426-.545c-.93 2.443-2.642 3.956-4.452 3.956-1.823 0-3.523-1.513-4.465-3.956l-1.414.545c.918 2.419 2.89 4.937 5.879 4.937 2.976 0 4.936-2.518 5.878-4.937z"/><path d="M29.37 38.138H12.864v-19.05h-1.525v20.563H29.37z"/></g></svg>
