<?xml version="1.0" encoding="UTF-8" standalone="no"?>
<svg
   id="Discord-Logo"
   viewBox="0 0 126.644 126.644"
   version="1.1"
   sodipodi:docname="discord.svg"
   width="126.644"
   height="126.644"
   inkscape:version="1.4.2 (f4327f4, 2025-05-13)"
   xmlns:inkscape="http://www.inkscape.org/namespaces/inkscape"
   xmlns:sodipodi="http://sodipodi.sourceforge.net/DTD/sodipodi-0.dtd"
   xmlns="http://www.w3.org/2000/svg"
   xmlns:svg="http://www.w3.org/2000/svg">
  <sodipodi:namedview
     id="namedview1"
     pagecolor="#ffffff"
     bordercolor="#000000"
     borderopacity="0.25"
     inkscape:showpageshadow="2"
     inkscape:pageopacity="0.0"
     inkscape:pagecheckerboard="0"
     inkscape:deskcolor="#d1d1d1"
     inkscape:zoom="2.8020833"
     inkscape:cx="-7.4944238"
     inkscape:cy="65.30855"
     inkscape:window-width="2256"
     inkscape:window-height="1380"
     inkscape:window-x="-12"
     inkscape:window-y="-12"
     inkscape:window-maximized="1"
     inkscape:current-layer="Discord-Logo" />
  <defs
     id="defs1">
    <style
       id="style1">.cls-1{fill:#5865f2;}</style>
  </defs>
  <path
     id="Discord-Symbol-Blurple"
     class="cls-1"
     d="m 81.150023,15.321999 c -1.2376,2.1973 -2.3489,4.4704 -3.3591,6.794 -9.5975,-1.4396 -19.3718,-1.4396 -28.9945,0 -0.985,-2.3236 -2.1216,-4.5967 -3.3591,-6.794 -9.0166,1.5407 -17.8059,4.2431 -26.1405,8.0568 -16.5178004,24.4736 -20.9882004,48.3157 -18.76560042,71.8295 C 10.204423,102.3559 21.039523,107.8113 32.581723,111.2967 c 2.6014,-3.4854 4.8998,-7.1981 6.8698,-11.0623 -3.738,-1.389101 -7.3497,-3.131801 -10.8098,-5.152301 0.9092,-0.6567 1.7932,-1.3386 2.6519,-1.9953 20.281,9.547001 43.7696,9.547001 64.0758,0 0.8587,0.7072 1.7427,1.3891 2.6519,1.9953 -3.4601,2.0457 -7.0718,3.7632 -10.835,5.177601 1.97,3.8642 4.2683,7.5769 6.8698,11.0623 11.541897,-3.4854 22.376897,-8.9156 32.050897,-16.063101 2.626,-27.2771 -4.496,-50.9172 -18.817,-71.8548 -8.308897,-3.8137 -17.098197,-6.5162 -26.114797,-8.0316 z m -38.8698,65.4144 c -6.2383,0 -11.4159,-5.6575 -11.4159,-12.6535 0,-6.996 4.9755,-12.6788 11.3907,-12.6788 6.4152,0 11.5169,5.708 11.4159,12.6788 -0.101,6.9708 -5.026,12.6535 -11.3907,12.6535 z m 42.0774,0 c -6.2637,0 -11.3907,-5.6575 -11.3907,-12.6535 0,-6.996 4.9755,-12.6788 11.3907,-12.6788 6.4152,0 11.4917,5.708 11.3906,12.6788 -0.101,6.9708 -5.026,12.6535 -11.3906,12.6535 z" />
</svg>
