<?xml version="1.0" encoding="UTF-8" standalone="no"?>
<!-- Created with Inkscape (http://www.inkscape.org/) -->

<svg
   xmlns:dc="http://purl.org/dc/elements/1.1/"
   xmlns:cc="http://creativecommons.org/ns#"
   xmlns:rdf="http://www.w3.org/1999/02/22-rdf-syntax-ns#"
   xmlns:svg="http://www.w3.org/2000/svg"
   xmlns="http://www.w3.org/2000/svg"
   xmlns:sodipodi="http://sodipodi.sourceforge.net/DTD/sodipodi-0.dtd"
   xmlns:inkscape="http://www.inkscape.org/namespaces/inkscape"
   width="300mm"
   height="300mm"
   viewBox="0 0 300 300"
   version="1.1"
   id="svg8"
   inkscape:version="0.92.5 (2060ec1f9f, 2020-04-08)"
   sodipodi:docname="lipulilipona.svg">
  <defs
     id="defs2" />
  <sodipodi:namedview
     id="base"
     pagecolor="#ffffff"
     bordercolor="#666666"
     borderopacity="1.0"
     inkscape:pageopacity="0.0"
     inkscape:pageshadow="2"
     inkscape:zoom="0.35"
     inkscape:cx="712.85714"
     inkscape:cy="560"
     inkscape:document-units="mm"
     inkscape:current-layer="layer1"
     showgrid="false"
     inkscape:window-width="1366"
     inkscape:window-height="705"
     inkscape:window-x="-8"
     inkscape:window-y="-8"
     inkscape:window-maximized="1" />
  <metadata
     id="metadata5">
    <rdf:RDF>
      <cc:Work
         rdf:about="">
        <dc:format>image/svg+xml</dc:format>
        <dc:type
           rdf:resource="http://purl.org/dc/dcmitype/StillImage" />
        <dc:title></dc:title>
      </cc:Work>
    </rdf:RDF>
  </metadata>
  <g
     inkscape:label="Layer 1"
     inkscape:groupmode="layer"
     id="layer1"
     transform="translate(0,3)">
    <g
       id="g880"
       transform="translate(61.112533,-8.3719226)">
      <path
         style="fill:#fdfd7b;stroke-width:0.26185566"
         d="m -13.329952,278.74614 c -2.113345,-0.39749 -3.963297,-1.81871 -4.946366,-3.80004 -0.646212,-1.30242 -0.653697,-4.01863 -0.03637,-13.19842 0.246972,-3.67253 0.684725,-11.68531 0.972784,-17.80619 0.288059,-6.12087 1.937665,-41.00005 3.665789,-77.50927 1.728124,-36.50923 3.432878,-72.684589 3.7883411,-80.389692 0.3554641,-7.705103 0.7231697,-15.423299 0.8171235,-17.151546 0.093956,-1.728247 0.2445784,-8.150258 0.334717,-14.271134 l 0.1638902,-11.128865 0.7850407,-1.432691 c 0.4317738,-0.787979 1.4920536,-2.154368 2.3561773,-3.036421 2.0055472,-2.047154 3.7543241,-2.775065 6.939175,-2.888365 1.2241753,-0.04355 6.1143298,-0.493312 10.8670102,-0.999474 17.531928,-1.867154 22.744243,-2.288558 34.564947,-2.794511 3.964605,-0.169695 31.902266,-0.335652 70.838863,-0.420799 59.2074,-0.12948 64.42604,-0.106382 65.98118,0.292024 4.86894,1.247365 7.56395,4.58647 8.99867,11.149309 1.73458,7.93452 1.75874,9.271034 2.00437,110.895875 0.13295,55.00666 0.32378,92.95815 0.47729,94.92268 0.14067,1.80026 0.39077,5.09964 0.55578,7.33196 0.165,2.23232 0.41058,4.47118 0.54573,4.97525 0.56278,2.09912 -0.10295,4.45608 -1.54137,5.4571 -1.68425,1.17207 -2.76887,1.30829 -18.01435,2.26217 -5.77966,0.36163 -13.73352,0.9486 -17.67526,1.30441 -5.69768,0.51429 -57.47209,5.7559 -62.287399,6.30593 -4.116363,0.47019 -24.024757,1.48095 -33.811769,1.71662 -13.928035,0.33541 -74.791526,0.50609 -76.343995,0.21409 z"
         id="path884"
         inkscape:connector-curvature="0" />
      <path
         style="fill:#040493;stroke-width:0.26185566"
         d="m -13.329952,278.74614 c -2.113345,-0.39749 -3.963297,-1.81871 -4.946366,-3.80004 -0.646212,-1.30242 -0.653697,-4.01863 -0.03637,-13.19842 0.246972,-3.67253 0.684725,-11.68531 0.972784,-17.80619 0.288059,-6.12087 1.937665,-41.00005 3.665789,-77.50927 1.728124,-36.50923 3.432878,-72.684589 3.7883411,-80.389692 0.3554641,-7.705103 0.7231697,-15.423299 0.8171235,-17.151546 0.093956,-1.728247 0.2445784,-8.150258 0.334717,-14.271134 l 0.1638902,-11.128865 0.7850407,-1.432691 c 0.4317738,-0.787979 1.4920536,-2.154368 2.3561773,-3.036421 2.0055472,-2.047154 3.7543241,-2.775065 6.939175,-2.888365 1.2241753,-0.04355 6.1143298,-0.493312 10.8670102,-0.999474 17.531928,-1.867154 22.744243,-2.288558 34.564947,-2.794511 3.964605,-0.169695 31.902266,-0.335652 70.838863,-0.420799 59.2074,-0.12948 64.42604,-0.106382 65.98118,0.292024 4.86894,1.247365 7.56395,4.58647 8.99867,11.149309 1.73458,7.93452 1.75874,9.271034 2.00437,110.895875 0.13295,55.00666 0.32378,92.95815 0.47729,94.92268 0.14067,1.80026 0.39077,5.09964 0.55578,7.33196 0.165,2.23232 0.41058,4.47118 0.54573,4.97525 0.56278,2.09912 -0.10295,4.45608 -1.54137,5.4571 -1.68425,1.17207 -2.76887,1.30829 -18.01435,2.26217 -5.77966,0.36163 -13.73352,0.9486 -17.67526,1.30441 -5.69768,0.51429 -57.47209,5.7559 -62.287399,6.30593 -4.116363,0.47019 -24.024757,1.48095 -33.811769,1.71662 -13.928035,0.33541 -74.791526,0.50609 -76.343995,0.21409 z m 71.401126,-13.59766 c 19.648277,-0.37574 30.678075,-1.05664 51.061856,-3.15225 47.57482,-4.89102 51.913,-5.30199 64.41649,-6.10244 l 8.77217,-0.56157 -0.0262,-5.6299 c -0.0144,-3.09644 -0.16957,-6.80825 -0.34477,-8.24845 -0.23972,-1.97047 -0.37324,-23.61688 -0.53949,-87.4598 -0.13255,-50.90378 -0.33286,-87.826471 -0.50075,-92.304119 -0.34443,-9.186075 -0.82797,-14.71031 -1.38094,-15.776804 -0.22524,-0.434413 -3.37539,-0.458247 -60.56447,-0.458247 -70.226592,0 -75.911337,0.119288 -94.542329,1.98385 C 15.843686,48.297328 5.8821411,49.374769 5.8067607,49.452252 5.7739031,49.486029 5.6769824,54.747925 5.5913818,61.145357 5.4533629,71.460485 4.8348651,83.866942 3.991195,93.243559 3.9134448,94.107683 3.5012263,102.2383 3.0751505,111.3116 c -3.38451847,72.07376 -6.5962803,139.49053 -6.9350299,145.57029 -0.2240254,4.02078 -0.3151799,7.40186 -0.2025663,7.51349 0.217513,0.21564 6.4801552,0.72021 10.4171263,0.8393 6.5914514,0.19938 39.6646104,0.14426 51.7164934,-0.0862 z m 25.595323,-41.39231 c -2.827295,-0.66634 -4.997044,-2.4836 -9.134576,-7.65061 -6.440429,-8.04289 -16.371742,-23.40516 -17.507015,-27.08074 -0.69469,-2.24914 -0.688232,-4.9879 0.01715,-7.27166 0.905989,-2.93326 3.046363,-4.58486 5.941706,-4.58486 2.65153,0 6.685456,2.02106 8.495721,4.25648 0.49508,0.61136 1.888524,2.76125 3.096543,4.77754 3.959313,6.60844 11.650194,17.74336 12.351412,17.88247 0.409202,0.0812 3.735089,-3.68713 13.226632,-14.98608 6.24117,-7.42963 7.53892,-8.58417 10.771,-9.58246 3.35162,-1.03521 6.91364,-0.40688 8.3993,1.48161 2.00857,2.55318 2.07164,7.03629 0.15425,10.96528 -0.6007,1.23092 -4.33699,5.80572 -14.00783,17.15155 -5.533469,6.49186 -11.044489,11.85487 -13.513749,13.15081 -3.055538,1.60364 -5.753178,2.08869 -8.290546,1.49067 z m 0.721171,-75.66799 c -7.585044,-0.77842 -15.843286,-4.38867 -22.752078,-9.9465 -2.810167,-2.26067 -8.440739,-8.18243 -10.849848,-11.41096 -3.897664,-5.2234 -9.983923,-16.23442 -10.922222,-19.76006 -1.278762,-4.80492 0.402744,-10.391146 3.63905,-12.089498 2.561391,-1.344168 6.314495,-0.30432 9.349234,2.590332 1.761723,1.680398 2.538945,2.928926 4.290246,6.891866 2.370729,5.3646 7.18621,12.67527 11.040018,16.76052 4.695261,4.97722 10.715655,8.64461 15.990871,9.74101 8.233847,1.71133 16.473741,-1.28182 23.912641,-8.68628 5.46131,-5.43604 9.47436,-11.63664 13.49425,-20.85014 2.55676,-5.86002 3.95589,-7.588223 7.50119,-9.265422 1.92421,-0.910302 4.14676,-1.054582 5.60267,-0.363707 2.97825,1.413272 5.05774,6.487087 4.36704,10.655289 -0.84543,5.10206 -7.17157,17.30381 -12.9932,25.06109 -2.18416,2.91038 -6.69307,7.64362 -9.70172,10.1844 -4.18076,3.53061 -9.65822,6.72168 -14.39437,8.38587 -5.300688,1.86256 -12.046177,2.66946 -17.573772,2.10219 z"
         id="path882"
         inkscape:connector-curvature="0" />
    </g>
  </g>
</svg>
