<svg width="16" height="16" version="1.1" viewBox="0 0 16 16" xmlns="http://www.w3.org/2000/svg">
  <rect x=".01" y=".01" width="15.98" height="15.98" ry="7.99" fill="#241f31"/>
  <path d="m8 0c-4.4124 0-8 3.5876-8 8 0 4.4124 3.5876 8 8 8 4.4124 0 8-3.5876 8-8 0-4.4124-3.5876-8-8-8zm0 1c3.8719 0 7 3.1281 7 7 0 3.8719-3.1281 7-7 7v-2c-2.7613 0-5-2.2387-5-5a0.5 0.5 0 0 1 0.5-0.5 0.5 0.5 0 0 1 0.5 0.5c0 2.2246 1.7754 4 4 4v-11zm0 11v1c2.7613 0 5-2.2387 5-5a0.5 0.5 0 0 0-0.5-0.5 0.5 0.5 0 0 0-0.5 0.5c0 2.2246-1.7754 4-4 4z" fill="#c061cb"/>
</svg>
