<?xml version="1.0" encoding="UTF-8" standalone="no"?>
<svg
   xmlns:osb="http://www.openswatchbook.org/uri/2009/osb"
   xmlns:dc="http://purl.org/dc/elements/1.1/"
   xmlns:cc="http://creativecommons.org/ns#"
   xmlns:rdf="http://www.w3.org/1999/02/22-rdf-syntax-ns#"
   xmlns:svg="http://www.w3.org/2000/svg"
   xmlns="http://www.w3.org/2000/svg"
   xmlns:xlink="http://www.w3.org/1999/xlink"
   xmlns:sodipodi="http://sodipodi.sourceforge.net/DTD/sodipodi-0.dtd"
   xmlns:inkscape="http://www.inkscape.org/namespaces/inkscape"
   inkscape:version="0.92.5 (2060ec1f9f, 2020-04-08)"
   sodipodi:docname="Wikipesija.svg"
   id="svg949"
   viewBox="0 0 250 250"
   version="1.1"
   width="250"
   height="250">
  <metadata
     id="metadata953">
    <rdf:RDF>
      <cc:Work
         rdf:about="">
        <dc:format>image/svg+xml</dc:format>
        <dc:type
           rdf:resource="http://purl.org/dc/dcmitype/StillImage" />
        <dc:title></dc:title>
      </cc:Work>
    </rdf:RDF>
  </metadata>
  <sodipodi:namedview
     inkscape:current-layer="svg949"
     inkscape:window-maximized="1"
     inkscape:window-y="-8"
     inkscape:window-x="-8"
     inkscape:cy="134.23339"
     inkscape:cx="70.32714"
     inkscape:zoom="1.0651179"
     showgrid="false"
     id="namedview951"
     inkscape:window-height="705"
     inkscape:window-width="1366"
     inkscape:pageshadow="2"
     inkscape:pageopacity="0"
     guidetolerance="10"
     gridtolerance="10"
     objecttolerance="10"
     borderopacity="1"
     bordercolor="#666666"
     pagecolor="#ffffff" />
  <defs
     id="defs853">
    <linearGradient
       id="b">
      <stop
         id="stop833"
         offset="0"
         stop-color="#c0bfbc" />
      <stop
         id="stop835"
         offset="1"
         stop-color="#fff" />
    </linearGradient>
    <linearGradient
       id="a">
      <stop
         id="stop838"
         offset="0"
         stop-color="#fff" />
      <stop
         id="stop840"
         offset="1"
         stop-color="#c0bfbc" />
    </linearGradient>
    <radialGradient
       xlink:href="#a"
       gradientUnits="userSpaceOnUse"
       gradientTransform="matrix(-1.3333e-7,-1.3333,1.3333,-1.3333e-7,10.333,66.33)"
       r="12"
       cy="44"
       cx="52"
       id="h" />
    <radialGradient
       xlink:href="#a"
       gradientUnits="userSpaceOnUse"
       gradientTransform="matrix(1.3333,5.0937e-7,-6.1667e-7,1.3333,-37.667,-61.667)"
       r="12"
       cy="44"
       cx="212"
       id="g" />
    <linearGradient
       xlink:href="#a"
       gradientUnits="userSpaceOnUse"
       gradientTransform="translate(29,-43)"
       y2="24"
       y1="40"
       x2="124"
       x1="124"
       id="l" />
    <linearGradient
       xlink:href="#a"
       gradientUnits="userSpaceOnUse"
       gradientTransform="translate(29,-43)"
       y2="124"
       y1="124"
       x2="232"
       x1="216"
       id="k" />
    <linearGradient
       xlink:href="#a"
       gradientUnits="userSpaceOnUse"
       gradientTransform="matrix(-1,0,0,1,101,-43)"
       y2="124"
       y1="124"
       x2="48"
       x1="32"
       id="j" />
    <radialGradient
       xlink:href="#a"
       gradientUnits="userSpaceOnUse"
       gradientTransform="matrix(0,-2,2,0,-379,221)"
       r="8"
       cy="216"
       cx="24"
       id="f" />
    <linearGradient
       xlink:href="#a"
       gradientUnits="userSpaceOnUse"
       gradientTransform="translate(29,-43)"
       y2="232"
       y1="216"
       x2="128"
       x1="128"
       id="i" />
    <radialGradient
       xlink:href="#a"
       gradientUnits="userSpaceOnUse"
       gradientTransform="matrix(0,-2,-2,0,693,221)"
       r="8"
       cy="216"
       cx="24"
       id="c" />
    <radialGradient
       xlink:href="#b"
       gradientUnits="userSpaceOnUse"
       gradientTransform="matrix(2,0,0,-2,-27,557)"
       r="8"
       cy="200"
       cx="40"
       id="e" />
    <radialGradient
       xlink:href="#b"
       gradientUnits="userSpaceOnUse"
       gradientTransform="matrix(-2,0,0,-2,341,557)"
       r="8"
       cy="200"
       cx="40"
       id="d" />
    <linearGradient
       osb:paint="solid"
       id="linearGradient1259">
      <stop
         id="stop1257"
         offset="0"
         style="stop-color:#000000;stop-opacity:1;" />
    </linearGradient>
    <inkscape:path-effect
       lpeversion="1"
       is_visible="true"
       id="path-effect1238"
       effect="spiro" />
    <inkscape:path-effect
       lpeversion="1"
       is_visible="true"
       id="path-effect1234"
       effect="spiro" />
    <inkscape:path-effect
       lpeversion="1"
       is_visible="true"
       id="path-effect1230"
       effect="spiro" />
    <inkscape:path-effect
       lpeversion="1"
       is_visible="true"
       id="path-effect1226"
       effect="spiro" />
    <inkscape:path-effect
       lpeversion="1"
       is_visible="true"
       id="path-effect1222"
       effect="spiro" />
    <inkscape:path-effect
       lpeversion="1"
       is_visible="true"
       id="path-effect1218"
       effect="spiro" />
    <inkscape:path-effect
       lpeversion="1"
       is_visible="true"
       id="path-effect1200"
       effect="spiro" />
    <inkscape:path-effect
       lpeversion="1"
       is_visible="true"
       id="path-effect1196"
       effect="spiro" />
    <inkscape:path-effect
       effect="spiro"
       id="path-effect1174"
       is_visible="true"
       lpeversion="1" />
    <inkscape:path-effect
       lpeversion="1"
       is_visible="true"
       id="path-effect1149"
       effect="spiro" />
    <inkscape:path-effect
       effect="spiro"
       id="path-effect1145"
       is_visible="true"
       lpeversion="1" />
    <inkscape:path-effect
       lpeversion="1"
       is_visible="true"
       id="path-effect1126"
       effect="spiro" />
    <inkscape:path-effect
       effect="spiro"
       id="path-effect1122"
       is_visible="true"
       lpeversion="1" />
    <inkscape:path-effect
       lpeversion="1"
       is_visible="true"
       id="path-effect1103"
       effect="spiro" />
    <inkscape:path-effect
       lpeversion="1"
       is_visible="true"
       id="path-effect1066"
       effect="spiro" />
    <inkscape:path-effect
       lpeversion="1"
       is_visible="true"
       id="path-effect1013"
       effect="spiro" />
    <inkscape:path-effect
       effect="spiro"
       id="path-effect979"
       is_visible="true"
       lpeversion="1" />
    <inkscape:path-effect
       lpeversion="1"
       is_visible="true"
       id="path-effect975"
       effect="spiro" />
    <inkscape:path-effect
       lpeversion="1"
       is_visible="true"
       id="path-effect971"
       effect="spiro" />
    <inkscape:path-effect
       lpeversion="1"
       is_visible="true"
       id="path-effect950"
       effect="spiro" />
    <inkscape:path-effect
       lpeversion="1"
       is_visible="true"
       id="path-effect946"
       effect="spiro" />
    <inkscape:path-effect
       lpeversion="1"
       is_visible="true"
       id="path-effect942"
       effect="spiro" />
    <inkscape:path-effect
       lpeversion="1"
       is_visible="true"
       id="path-effect938"
       effect="spiro" />
    <inkscape:path-effect
       lpeversion="1"
       is_visible="true"
       id="path-effect934"
       effect="spiro" />
    <inkscape:path-effect
       effect="spiro"
       id="path-effect930"
       is_visible="true"
       lpeversion="1" />
    <inkscape:path-effect
       effect="spiro"
       id="path-effect926"
       is_visible="true"
       lpeversion="1" />
    <inkscape:path-effect
       lpeversion="1"
       is_visible="true"
       id="path-effect907"
       effect="spiro" />
    <inkscape:path-effect
       effect="spiro"
       id="path-effect903"
       is_visible="true"
       lpeversion="1" />
    <inkscape:path-effect
       lpeversion="1"
       is_visible="true"
       id="path-effect899"
       effect="spiro" />
    <inkscape:path-effect
       lpeversion="1"
       is_visible="true"
       id="path-effect853"
       effect="spiro" />
    <inkscape:path-effect
       effect="spiro"
       id="path-effect849"
       is_visible="true"
       lpeversion="1" />
    <inkscape:path-effect
       effect="spiro"
       id="path-effect843"
       is_visible="true"
       lpeversion="1" />
  </defs>
  <g
     id="g1050"
     transform="translate(-32.0005,40)">
    <rect
       style="fill:#ffffff"
       x="53"
       y="-19"
       width="208"
       height="208"
       ry="24"
       id="rect855"
       inkscape:export-xdpi="1199.995"
       inkscape:export-ydpi="1199.995" />
    <rect
       style="fill:#ffffff"
       x="37"
       y="157"
       width="240"
       height="32"
       ry="15.621"
       id="rect857"
       inkscape:export-xdpi="1199.995"
       inkscape:export-ydpi="1199.995" />
    <path
       style="fill:url(#h)"
       inkscape:connector-curvature="0"
       d="M 77,-19 C 63.704,-19 53,-8.296 53,5 h 24 z"
       id="path859"
       inkscape:export-xdpi="1199.995"
       inkscape:export-ydpi="1199.995" />
    <path
       style="fill:url(#g)"
       inkscape:connector-curvature="0"
       d="m 261,5 c 0,-13.296 -10.704,-24 -24,-24 V 5 Z"
       id="path861"
       inkscape:export-xdpi="1199.995"
       inkscape:export-ydpi="1199.995" />
    <path
       style="fill:url(#l)"
       inkscape:connector-curvature="0"
       d="m 77,-19 c -2.8088,0 -5.499,0.48241 -8,1.3613 v 22.639 h 176 v -22.639 C 242.499,-18.51762 239.8088,-19 237,-19 Z"
       id="path863"
       inkscape:export-xdpi="1199.995"
       inkscape:export-ydpi="1199.995" />
    <path
       style="fill:url(#j)"
       inkscape:connector-curvature="0"
       d="m 54.361,-3 c -0.87892,2.501 -1.3613,5.1912 -1.3613,8 v 152 h 24 V -3 h -22.639 z"
       id="path865"
       inkscape:export-xdpi="1199.995"
       inkscape:export-ydpi="1199.995" />
    <path
       style="fill:url(#k)"
       inkscape:connector-curvature="0"
       d="m 237,-3 v 160 h 24 V 5 c 0,-2.8088 -0.48241,-5.499 -1.3613,-8 h -22.639 z"
       id="path867"
       inkscape:export-xdpi="1199.995"
       inkscape:export-ydpi="1199.995" />
    <path
       style="fill:url(#f)"
       inkscape:connector-curvature="0"
       d="M 52.621,157 C 43.9669,157 37,163.967 37,172.621 v 0.75782 c 0,8.6541 6.9669,15.621 15.621,15.621 h 0.37891 v -32 H 52.621 Z"
       id="path869"
       inkscape:export-xdpi="1199.995"
       inkscape:export-ydpi="1199.995" />
    <rect
       style="fill:url(#i)"
       x="53"
       y="173"
       width="208"
       height="16"
       id="rect871"
       inkscape:export-xdpi="1199.995"
       inkscape:export-ydpi="1199.995" />
    <path
       style="fill:url(#c)"
       inkscape:connector-curvature="0"
       d="m 261.38,157 c 8.6541,0 15.621,6.967 15.621,15.621 v 0.75782 c 0,8.6541 -6.967,15.621 -15.621,15.621 h -0.37891 v -32 z"
       id="path873"
       inkscape:export-xdpi="1199.995"
       inkscape:export-ydpi="1199.995" />
    <path
       style="fill:url(#e)"
       inkscape:connector-curvature="0"
       d="m 53,157 v 16 h 0.37891 c 8.6541,0 15.621,-6.967 15.621,-15.621 v -0.37891 h -16 z"
       id="path875"
       inkscape:export-xdpi="1199.995"
       inkscape:export-ydpi="1199.995" />
    <path
       style="fill:url(#d)"
       inkscape:connector-curvature="0"
       d="m 261,157 v 16 h -0.37891 c -8.6541,0 -15.621,-6.967 -15.621,-15.621 v -0.37891 z"
       id="path877"
       inkscape:export-xdpi="1199.995"
       inkscape:export-ydpi="1199.995" />
    <g
       id="g1246"
       transform="matrix(1.4338138,0,0,1.4338138,368.21048,-73.680645)"
       inkscape:export-xdpi="1199.995"
       inkscape:export-ydpi="1199.995">
      <path
         style="fill:#ffffff;fill-opacity:1;stroke:#000000;stroke-width:2.22531009;stroke-linecap:round;stroke-linejoin:miter;stroke-miterlimit:4;stroke-dasharray:none;stroke-opacity:1"
         d="m -102.67391,151.42364 c 0.37518,-3.38417 0.0136,-6.84809 -1.05226,-10.08185 -0.88548,-2.68638 -2.29186,-5.26007 -4.41347,-7.13076 -1.30758,-1.15293 -2.85061,-2.00965 -4.43902,-2.72795 -3.93655,-1.78015 -8.29075,-2.76019 -12.59545,-2.39282 -2.18029,0.18607 -4.36549,0.73009 -6.22575,1.88236 -1.16706,0.7229 -2.18813,1.6757 -3.01204,2.77379 -1.23498,1.64595 -2.01744,3.59763 -2.49535,5.59911 -0.47792,2.00148 -0.66225,4.06077 -0.78982,6.11456 -0.14154,2.27873 -0.21435,4.57491 0.0921,6.83737 0.30649,2.26246 1.0089,4.50388 2.30768,6.3816 2.07034,2.99319 5.49639,4.82418 9.02372,5.72053 3.52733,0.89635 7.20402,0.95991 10.84126,1.08632 3.47332,0.12071 6.96238,0.30264 10.41525,-0.0926 3.45287,-0.39524 6.907533,-1.4041 9.713216,-3.45512 2.966945,-2.1689 5.04183,-5.38658 6.383845,-8.80797 1.17154,-2.98677 1.830581,-6.17981 1.873127,-9.38785 0.03059,-2.30678 -0.259385,-4.62895 -0.992386,-6.81639 -0.733002,-2.18744 -1.918103,-4.23845 -3.549185,-5.86994 -1.730616,-1.73105 -3.988085,-2.97687 -6.414607,-3.29865 -1.916526,-0.25415 -3.90665,0.0765 -5.63804,0.9367 -1.73138,0.86021 -3.19702,2.24651 -4.15215,3.9274"
         id="path1216"
         inkscape:connector-curvature="0"
         inkscape:path-effect="#path-effect1218"
         inkscape:original-d="m -102.67391,151.42364 c -1.32842,-3.80451 0.27757,-6.27564 -1.05226,-10.08185 -1.32985,-3.80621 -2.80819,-5.10879 -4.41347,-7.13076 -1.60529,-2.02201 -2.78074,-1.81776 -4.43902,-2.72795 -1.65829,-0.91018 -9.44816,-2.48073 -12.59545,-2.39282 -3.14729,0.0877 -4.67583,1.06462 -6.22575,1.88236 -1.54992,0.81774 -2.3931,1.02765 -3.01204,2.77379 -0.61894,1.746 -2.68471,6.8038 -3.28517,11.71367 -0.60048,4.90983 1.83744,10.64791 2.39982,13.21897 0.56236,2.57114 17.39617,5.40586 19.86498,6.80685 2.46881,1.40104 14.22674,-3.43336 20.128466,-3.54772 5.901706,-0.11415 1.163838,-5.17561 6.383845,-8.80797 5.220012,-3.63243 1.249463,-6.25768 1.873127,-9.38785 0.623629,-3.13013 -3.027013,-8.45669 -4.541571,-12.68633 -1.514559,-4.2297 -4.275693,-2.19825 -6.414607,-3.29865 -2.13893,-1.10038 -6.52608,3.24362 -9.79019,4.8641"
         sodipodi:nodetypes="cssssssssssssssc"
         inkscape:export-xdpi="1431.4753"
         inkscape:export-ydpi="1431.4753" />
      <path
         sodipodi:nodetypes="sssssssssss"
         inkscape:original-d="m -95.147558,117.00749 c 6.998298,0.81627 4.609304,3.21449 6.07824,3.93634 1.46897,0.72185 -0.774399,2.30797 -1.162904,3.46141 -0.388464,1.15347 -4.382801,2.38824 -7.417092,2.94255 -3.034326,0.55438 -19.803286,0.0971 -28.520126,-0.22715 -8.71688,-0.32315 -4.74207,-3.28948 -7.1144,-3.68406 -2.37232,-0.39462 -0.0958,-2.33257 -0.48951,-3.73829 -0.39368,-1.40572 5.55143,-1.90715 8.32585,-2.86125 2.77443,-0.95411 7.31504,-0.33941 10.97126,-0.50971 3.65622,-0.17046 12.33036,-0.13607 19.328682,0.68016 z"
         inkscape:path-effect="#path-effect1145"
         inkscape:connector-curvature="0"
         id="path1124-5"
         d="m -95.147558,117.00749 c 1.280504,0.18802 2.581149,0.41591 3.72683,1.01795 0.57284,0.30103 1.101183,0.69544 1.518846,1.18972 0.417664,0.49429 0.721844,1.0911 0.832564,1.72867 0.107754,0.6205 0.03011,1.26679 -0.183495,1.85924 -0.213608,0.59245 -0.560023,1.13234 -0.979409,1.60217 -0.905552,1.01448 -2.137284,1.69566 -3.426196,2.12912 -1.288913,0.43346 -2.642869,0.63452 -3.990896,0.81343 -9.463716,1.25601 -19.132796,1.50996 -28.520126,-0.22715 -1.35311,-0.25039 -2.71033,-0.5455 -3.96666,-1.10696 -1.25634,-0.56146 -2.41712,-1.41099 -3.14774,-2.5771 -0.34591,-0.55208 -0.59112,-1.17071 -0.68614,-1.81523 -0.095,-0.64453 -0.0371,-1.31492 0.19663,-1.92306 0.28239,-0.73486 0.81458,-1.36049 1.45706,-1.81543 0.64249,-0.45495 1.39174,-0.74537 2.16104,-0.91255 1.53858,-0.33436 3.13414,-0.18603 4.70775,-0.13327 3.66075,0.12275 7.31558,-0.28126 10.97126,-0.50971 6.44599,-0.40282 12.93863,-0.25812 19.328682,0.68016 z"
         style="fill:#ffffff;fill-opacity:1;stroke:#000000;stroke-width:2.22531009;stroke-linecap:butt;stroke-linejoin:miter;stroke-miterlimit:4;stroke-dasharray:none;stroke-opacity:1"
         inkscape:export-xdpi="1431.4753"
         inkscape:export-ydpi="1431.4753" />
      <path
         style="fill:#ffffff;fill-opacity:1;stroke:#000000;stroke-width:2.22531009;stroke-linecap:butt;stroke-linejoin:miter;stroke-miterlimit:4;stroke-dasharray:none;stroke-opacity:1"
         d="m -95.327619,109.62717 c 1.312703,-0.48817 2.851842,-0.31923 4.0274,0.44206 1.175558,0.76129 1.959322,2.09666 2.050844,3.4942 0.08146,1.24386 -0.370812,2.49895 -1.162915,3.46145 -0.867336,1.05392 -2.105051,1.75332 -3.401244,2.18098 -1.296194,0.42766 -2.660152,0.60308 -4.015837,0.76161 -9.478139,1.10835 -19.133449,1.49154 -28.520129,-0.22715 -1.35376,-0.24787 -2.71134,-0.54282 -3.96763,-1.10483 -1.25629,-0.56201 -2.41642,-1.41266 -3.14677,-2.57915 -0.34572,-0.55218 -0.59093,-1.17077 -0.68599,-1.81527 -0.0951,-0.64451 -0.0372,-1.31491 0.19648,-1.92303 0.28238,-0.73481 0.81467,-1.36033 1.45721,-1.8151 0.64255,-0.45477 1.39184,-0.74497 2.16111,-0.912 1.53856,-0.33406 3.13398,-0.18575 4.70753,-0.13415 3.66076,0.12005 7.31496,-0.2929 10.97126,-0.50978 6.44514,-0.3823 12.92636,-0.15422 19.328685,0.6802 z"
         id="path1147"
         inkscape:connector-curvature="0"
         inkscape:path-effect="#path-effect1149"
         inkscape:original-d="m -95.327619,109.62717 c 6.998306,0.81626 4.609301,3.21445 6.078244,3.93626 1.46897,0.72186 -0.774406,2.30805 -1.162915,3.46145 -0.38846,1.15351 -4.382793,2.38821 -7.417081,2.94259 -3.034329,0.5543 -19.803289,0.0971 -28.520129,-0.22715 -8.71688,-0.32315 -4.74207,-3.2894 -7.1144,-3.68398 -2.37232,-0.39462 -0.0959,-2.33262 -0.48951,-3.7383 -0.39368,-1.40572 5.55143,-1.90722 8.32585,-2.86125 2.77443,-0.95414 7.31504,-0.3394 10.97126,-0.50978 3.65622,-0.17008 12.33036,-0.13569 19.328685,0.6802 z"
         sodipodi:nodetypes="sssssssssss"
         inkscape:export-xdpi="1431.4753"
         inkscape:export-ydpi="1431.4753" />
      <path
         style="fill:#ffffff;fill-opacity:1;stroke:#000000;stroke-width:2.22531009;stroke-linecap:butt;stroke-linejoin:miter;stroke-miterlimit:4;stroke-dasharray:none;stroke-opacity:1"
         d="m -93.470699,92.889381 c 1.992116,1.268265 3.541512,3.217916 4.327147,5.444977 0.53185,1.507651 0.718377,3.140362 0.503802,4.724612 -0.214575,1.58424 -0.833481,3.11663 -1.808498,4.3836 -1.07539,1.3974 -2.555965,2.44642 -4.150812,3.19852 -1.594847,0.75209 -3.307765,1.22154 -5.028459,1.60677 -8.281771,1.85413 -16.994651,1.81107 -25.232391,-0.2298 -1.65246,-0.40939 -3.29648,-0.90218 -4.81005,-1.6815 -1.51356,-0.77932 -2.89991,-1.86183 -3.84491,-3.27788 -0.94279,-1.41273 -1.41256,-3.11775 -1.43487,-4.81604 -0.0223,-1.69828 0.39134,-3.388451 1.0963,-4.933668 1.63744,-3.589152 4.82441,-6.346776 8.45234,-7.896416 3.44738,-1.47252 7.25724,-1.917719 11.00575,-1.880428 7.26954,0.07232 14.514907,1.927477 20.924663,5.357707 z"
         id="path1124"
         inkscape:connector-curvature="0"
         inkscape:path-effect="#path-effect1126"
         inkscape:original-d="m -93.470699,92.889381 c 6.974022,1.784958 2.885613,3.630917 4.327147,5.444977 1.441535,1.813982 -0.868955,6.073092 -1.304696,9.108212 -0.43575,3.03518 -6.11867,3.20443 -9.179271,4.80529 -3.060601,1.60085 -16.517731,0.1833 -25.232391,-0.2298 -8.71466,-0.41352 -6.29563,-4.04617 -8.65496,-4.95938 -2.35931,-0.91313 -0.001,-6.09396 -0.33857,-9.749708 -0.33717,-3.65571 5.63574,-5.263295 8.45234,-7.896416 2.81659,-2.633008 7.33801,-1.252687 11.00575,-1.880428 3.66774,-0.627742 13.95063,3.572711 20.924663,5.357707 z"
         sodipodi:nodetypes="ssssssssss"
         inkscape:export-xdpi="1431.4753"
         inkscape:export-ydpi="1431.4753" />
      <path
         style="fill:none;stroke:#000000;stroke-width:2.22531009;stroke-linecap:round;stroke-linejoin:miter;stroke-miterlimit:4;stroke-dasharray:none;stroke-opacity:1"
         d="m -111.47455,92.914213 c -0.19173,2.790013 -0.29786,5.585908 -0.31819,8.382427 -0.0121,1.66627 0.006,3.33275 0.055,4.99835"
         id="path1194"
         inkscape:connector-curvature="0"
         inkscape:path-effect="#path-effect1196"
         inkscape:original-d="m -111.47455,92.914213 c -0.0432,2.828145 -0.21123,5.589203 -0.31819,8.382427 -0.10693,2.79326 0.0374,3.33316 0.055,4.99835"
         inkscape:export-xdpi="1431.4753"
         inkscape:export-ydpi="1431.4753" />
      <path
         style="fill:#ffffff;fill-opacity:1;stroke:#000000;stroke-width:2.22531009;stroke-linecap:round;stroke-linejoin:miter;stroke-miterlimit:4;stroke-dasharray:none;stroke-opacity:1"
         d="m -120.79006,67.730805 c 4.14316,-1.828134 8.67009,-2.780942 13.19865,-2.777991 3.46045,0.0023 6.95689,0.570698 10.103924,2.009757 3.147034,1.43906 5.930088,3.789848 7.56864,6.837777 1.344852,2.501607 1.882822,5.446053 1.411174,8.246805 -0.471648,2.800752 -1.968633,5.434045 -4.196074,7.196194 -1.511334,1.19563 -3.317406,1.978178 -5.177462,2.482016 -1.860055,0.503838 -3.781492,0.739267 -5.699382,0.927344 -4.70194,0.461094 -9.45079,0.645879 -14.14737,0.13304 -5.64963,-0.616906 -11.18681,-2.249633 -16.26731,-4.796674 l -3.57998,-25.729928 c 0.0894,-3.335923 1.80117,-6.590956 4.49909,-8.555037 2.88212,-2.098183 6.58059,-2.661831 10.13209,-2.971426 6.20392,-0.540814 12.50684,-0.492544 18.59342,0.824541 3.65769,0.791494 7.349653,2.120006 9.985224,4.77687 0.768126,0.774332 1.436233,1.654927 1.916789,2.634046 0.480556,0.979119 0.770286,2.059111 0.779359,3.149765 0.01012,1.216222 -0.334185,2.433313 -0.979927,3.464 -0.645743,1.030686 -1.590719,1.871444 -2.689525,2.392907"
         id="path1064"
         inkscape:connector-curvature="0"
         inkscape:path-effect="#path-effect1066"
         inkscape:original-d="m -120.79006,67.730805 c 4.40048,-0.925153 8.80004,-1.851137 13.19865,-2.777991 4.39862,-0.926891 11.782646,5.899162 17.672564,8.847534 5.88991,2.948334 -1.855665,10.296151 -2.7849,15.442999 -0.929234,5.146847 -7.250302,2.273763 -10.876844,3.40936 -3.62656,1.135559 -9.43065,0.0892 -14.14737,0.13304 -4.71672,0.04384 -16.26731,-4.796674 -16.26731,-4.796674 l -3.57998,-25.729928 c 0,0 3.00033,-5.702514 4.49909,-8.555037 1.49877,-2.852485 7.80875,-2.316208 10.13209,-2.971426 2.32333,-0.655257 11.34346,0.886752 18.59342,0.824541 7.249968,-0.06236 6.657754,3.185462 9.985224,4.77687 3.327473,1.591445 1.798374,3.856705 2.696148,5.783811 0.897782,1.927067 -2.445365,3.905499 -3.669452,5.856907"
         sodipodi:nodetypes="csssssccsssssc"
         inkscape:export-xdpi="1431.4753"
         inkscape:export-ydpi="1431.4753" />
      <path
         inkscape:original-d="m -140.72909,134.05361 c 0,0 3.44362,8.53021 5.16401,12.79408 1.72042,4.26388 -2.3019,10.52508 -3.45427,15.78633 -1.15233,5.26133 -3.26035,2.25415 -4.89193,3.37996 -1.63156,1.12581 -14.5795,-6.44383 -14.5795,-6.44383 0,0 -4.55231,-19.65298 -4.55231,-19.65298 0,0 22.314,-5.86356 22.314,-5.86356 z"
         inkscape:path-effect="#path-effect979"
         inkscape:connector-curvature="0"
         id="path977"
         d="m -140.72909,134.05361 c 2.61298,3.82791 4.38769,8.22485 5.16401,12.79408 0.46672,2.74701 0.57416,5.57642 0.062,8.31532 -0.51217,2.73891 -1.6654,5.38818 -3.51627,7.47101 -1.32987,1.49653 -3.01377,2.68668 -4.89193,3.37996 -2.75658,1.01753 -5.90734,0.91896 -8.59492,-0.26889 -2.68759,-1.18786 -4.88143,-3.45149 -5.98458,-6.17494 l -4.55231,-19.65298 z"
         style="fill:#ffffff;fill-opacity:1;stroke:#000000;stroke-width:2.22531009;stroke-linecap:butt;stroke-linejoin:miter;stroke-miterlimit:4;stroke-dasharray:none;stroke-opacity:1"
         inkscape:export-xdpi="1431.4753"
         inkscape:export-ydpi="1431.4753" />
      <path
         style="fill:#ffffff;fill-opacity:1;stroke:#000000;stroke-width:2.22531009;stroke-linecap:butt;stroke-linejoin:miter;stroke-miterlimit:4;stroke-dasharray:none;stroke-opacity:1"
         d="m -155.7052,134.84732 c 2.61297,3.82792 4.38768,8.22484 5.16402,12.79407 0.46674,2.74703 0.5742,5.57645 0.062,8.31537 -0.51216,2.73892 -1.6654,5.38822 -3.51631,7.47104 -1.32987,1.4965 -3.01377,2.68662 -4.89193,3.37988 -2.75659,1.01751 -5.90732,0.91892 -8.59491,-0.26893 -2.68758,-1.18786 -4.88142,-3.45146 -5.98459,-6.1749 l -4.5523,-19.65294 z"
         id="path973"
         inkscape:connector-curvature="0"
         inkscape:path-effect="#path-effect975"
         inkscape:original-d="m -155.7052,134.84732 c 0,0 3.44363,8.5302 5.16402,12.79407 1.72041,4.2638 -2.30191,10.52508 -3.45428,15.78641 -1.15233,5.26125 -3.26034,2.25404 -4.89193,3.37988 -1.63156,1.12577 -14.5795,-6.44383 -14.5795,-6.44383 0,0 -4.5523,-19.65294 -4.5523,-19.65294 0,0 22.31399,-5.86359 22.31399,-5.86359 z"
         inkscape:export-xdpi="1431.4753"
         inkscape:export-ydpi="1431.4753" />
      <path
         style="fill:#ffffff;fill-opacity:1;stroke:#000000;stroke-width:2.22531009;stroke-linecap:butt;stroke-linejoin:round;stroke-miterlimit:4;stroke-dasharray:none;stroke-opacity:1"
         d="m -199.2707,109.79048 c -1.50792,1.92461 -2.72575,4.07608 -3.59976,6.35951 -1.54446,4.03502 -1.99624,8.40178 -2.17743,12.71849 -0.33681,8.02453 0.21356,16.06458 1.13879,24.04271 0.24809,2.13927 0.52587,4.28831 1.16362,6.34532 0.63774,2.05701 1.65807,4.03499 3.21164,5.52644 2.20209,2.11405 5.27404,3.07424 8.29394,3.51984 3.85582,0.56894 7.78569,0.40885 11.66091,-0.008 2.66125,-0.28627 5.43155,-0.74169 7.57641,-2.34286 1.38663,-1.03514 2.4207,-2.49711 3.1034,-4.08714 0.6827,-1.59002 1.02816,-3.30792 1.19738,-5.03002 0.25765,-2.62205 0.11569,-5.2698 -0.19529,-7.88606 -0.29374,-2.47117 -0.73804,-4.92443 -1.32964,-7.34166 3.34254,-0.43312 6.6963,-0.77965 10.05678,-1.03914 2.96934,-0.22929 5.95447,-0.39198 8.87535,-0.97341 2.92088,-0.58142 5.80325,-1.60527 8.1808,-3.39882 3.03585,-2.29015 5.0764,-5.72256 6.19673,-9.35657 2.05401,-6.66258 1.08607,-14.19441 -2.58582,-20.12114 z"
         id="path969"
         inkscape:connector-curvature="0"
         inkscape:path-effect="#path-effect971"
         inkscape:original-d="m -199.2707,109.79048 c 0,0 -2.39886,4.24052 -3.59976,6.35951 -1.20085,2.11903 -1.45068,8.47986 -2.17743,12.71849 -0.72678,4.2387 0.76376,15.07215 1.13879,24.04271 0.37466,8.9706 4.09548,9.64059 4.37526,11.87176 0.27961,2.23102 6.39287,1.75858 8.29394,3.51984 1.90103,1.76133 5.73081,-0.18331 11.66091,-0.008 5.93013,0.17612 4.4139,-1.33221 7.57641,-2.34286 3.16253,-1.01064 3.58082,-7.35027 4.30078,-9.11716 0.71997,-1.76678 -0.20304,-4.2124 -0.19529,-7.88606 0.009,-3.67374 -1.32964,-7.34166 -1.32964,-7.34166 0,0 6.70547,-0.69195 10.05678,-1.03914 3.35134,-0.34734 11.37174,-2.91394 17.05615,-4.37223 5.68442,-1.45818 4.13209,-6.23691 6.19673,-9.35657 2.06465,-3.11973 -2.58582,-20.12114 -2.58582,-20.12114 z"
         sodipodi:nodetypes="csscsssssscssscc"
         inkscape:export-xdpi="1431.4753"
         inkscape:export-ydpi="1431.4753" />
      <path
         style="fill:#ffffff;fill-opacity:1;stroke:#000000;stroke-width:2.22531009;stroke-linecap:butt;stroke-linejoin:miter;stroke-miterlimit:4;stroke-dasharray:none;stroke-opacity:1"
         d="m -155.4175,66.91299 c 0.37983,-4.229588 2.85981,-8.218862 6.48465,-10.431156 2.16105,-1.318924 4.71032,-2.020902 7.23885,-1.893499 2.52854,0.127403 5.02289,1.100124 6.90525,2.793178 2.30036,2.069011 3.58261,5.076983 4.13721,8.120807 0.55459,3.043825 0.44699,6.163829 0.37198,9.256856 -0.14117,5.820828 -0.16342,11.679934 -1.23477,17.403061 -1.07135,5.723127 -3.27586,11.378973 -7.25111,15.633303 -3.20038,3.42506 -7.41772,5.79424 -11.86711,7.26953 -4.44938,1.4753 -9.14036,2.0949 -13.81912,2.38255 -5.76762,0.35459 -11.58258,0.2137 -17.28294,-0.73346 -6.60275,-1.0971 -13.29448,-3.44861 -17.87331,-8.33064 -3.41158,-3.63748 -5.37949,-8.385909 -6.8698,-13.145011 -2.29727,-7.335997 -3.62953,-14.980246 -3.85429,-22.66424 -0.10908,-3.729079 0.0705,-7.589463 1.67815,-10.955981 1.05814,-2.215844 2.72218,-4.142332 4.77463,-5.490317 2.05246,-1.347986 4.48874,-2.110688 6.94398,-2.148448 3.55904,-0.05474 7.11421,1.458772 9.54167,4.062083 2.42746,2.603311 3.68903,6.255484 3.38591,9.802017"
         id="path940"
         inkscape:connector-curvature="0"
         inkscape:path-effect="#path-effect942"
         inkscape:original-d="m -155.4175,66.91299 c 1.86539,-3.203074 4.63096,-7.216516 6.48465,-10.431156 1.85416,-3.214866 9.43533,0.604838 14.1441,0.899679 4.7086,0.294803 3.32943,12.257008 4.50919,17.377663 1.18117,5.12058 -18.75483,29.385714 -8.48588,33.036364 7.49881,2.66611 -22.21396,6.69346 -25.68623,9.65208 -3.47199,2.95861 -7.78119,-0.98801 -17.28294,-0.73346 -9.50192,0.25625 -12.45015,-5.43004 -17.87331,-8.33064 -5.4234,-2.90083 -4.43814,-10.279222 -6.8698,-13.145011 -2.43186,-2.865789 -2.8776,-17.485531 -3.85429,-22.66424 -0.97647,-5.178633 1.27791,-4.081398 1.67815,-10.955981 0.40047,-6.874394 5.15252,-6.19714 11.71861,-7.638765 6.56613,-1.441134 10.7512,9.861996 12.92758,13.8641"
         sodipodi:nodetypes="csscsscsssssc"
         inkscape:export-xdpi="1431.4753"
         inkscape:export-ydpi="1431.4753" />
      <path
         style="fill:#ffffff;fill-opacity:1;stroke:#000000;stroke-width:2.22531009;stroke-linecap:butt;stroke-linejoin:miter;stroke-miterlimit:4;stroke-dasharray:none;stroke-opacity:1"
         d="m -184.0078,67.843623 c -0.31193,-2.865928 0.32373,-5.827051 1.78442,-8.312457 1.46068,-2.485405 3.7384,-4.481483 6.39399,-5.603385 2.29301,-0.96872 4.85078,-1.287232 7.31736,-0.952114 2.46657,0.335118 4.837,1.318602 6.84171,2.794218 3.53558,2.602453 5.8738,6.769385 6.25282,11.143105"
         id="path944"
         inkscape:connector-curvature="0"
         inkscape:path-effect="#path-effect946"
         inkscape:original-d="m -184.0078,67.843623 c 2.72704,-4.637744 5.45317,-9.276321 8.17841,-13.915842 2.72524,-4.639446 9.4403,1.228989 14.15907,1.842104 4.71878,0.61319 4.16943,7.429606 6.25282,11.143105"
         inkscape:export-xdpi="1431.4753"
         inkscape:export-ydpi="1431.4753" />
      <path
         style="fill:none;stroke:#000000;stroke-width:2.22531009;stroke-linecap:round;stroke-linejoin:miter;stroke-miterlimit:4;stroke-dasharray:none;stroke-opacity:1"
         d="m -192.91275,71.700291 c 4.38962,-2.24378 9.09121,-3.876192 13.92683,-4.835452 5.52467,-1.095951 11.22234,-1.311308 16.81509,-0.644825 5.39431,0.642834 10.69019,2.105308 15.64994,4.321776"
         id="path936"
         inkscape:connector-curvature="0"
         inkscape:path-effect="#path-effect938"
         inkscape:original-d="m -192.91275,71.700291 c 5.95912,-1.793234 7.97963,-3.030538 13.92683,-4.835452 5.94718,-1.806198 12.42253,-0.330708 16.81509,-0.644825 4.3928,-0.309921 10.54386,2.611276 15.64994,4.321776"
         sodipodi:nodetypes="cccc"
         inkscape:export-xdpi="1431.4753"
         inkscape:export-ydpi="1431.4753" />
      <circle
         style="fill:#000000;fill-opacity:1;stroke:none;stroke-width:5.13852978;stroke-linecap:round;stroke-linejoin:round;stroke-miterlimit:4;stroke-dasharray:none;stroke-opacity:1;paint-order:stroke markers fill"
         id="path952"
         cx="-156.70444"
         cy="90.184891"
         r="4.4506135"
         transform="rotate(-1.0145387)"
         inkscape:export-xdpi="1431.4753"
         inkscape:export-ydpi="1431.4753" />
      <circle
         r="4.4506135"
         cy="91.00209"
         cx="-186.94101"
         id="path952-8"
         style="fill:#000000;fill-opacity:1;stroke:none;stroke-width:5.13852978;stroke-linecap:round;stroke-linejoin:round;stroke-miterlimit:4;stroke-dasharray:none;stroke-opacity:1;paint-order:stroke markers fill"
         transform="rotate(-1.0145387)"
         inkscape:export-xdpi="1431.4753"
         inkscape:export-ydpi="1431.4753" />
      <circle
         style="fill:#000000;fill-opacity:1;stroke:none;stroke-width:5.13852978;stroke-linecap:round;stroke-linejoin:round;stroke-miterlimit:4;stroke-dasharray:none;stroke-opacity:1;paint-order:stroke markers fill"
         id="path952-8-5"
         cx="-186.94159"
         cy="123.30282"
         r="4.4506135"
         transform="rotate(-1.0145387)"
         inkscape:export-xdpi="1431.4753"
         inkscape:export-ydpi="1431.4753" />
      <circle
         r="4.4506135"
         cy="122.23065"
         cx="-156.70378"
         id="path952-4"
         style="fill:#000000;fill-opacity:1;stroke:none;stroke-width:5.13852978;stroke-linecap:round;stroke-linejoin:round;stroke-miterlimit:4;stroke-dasharray:none;stroke-opacity:1;paint-order:stroke markers fill"
         transform="rotate(-1.0145387)"
         inkscape:export-xdpi="1431.4753"
         inkscape:export-ydpi="1431.4753" />
      <path
         style="fill:none;stroke:#000000;stroke-width:2.22531009;stroke-linecap:round;stroke-linejoin:miter;stroke-miterlimit:4;stroke-dasharray:none;stroke-opacity:1"
         d="m -170.03307,82.033104 c 0.16968,5.416379 0.30824,10.833733 0.41567,16.251704 0.23856,12.031022 0.32364,24.065082 0.25519,36.098272"
         id="path1011"
         inkscape:connector-curvature="0"
         inkscape:path-effect="#path-effect1013"
         inkscape:original-d="m -170.03307,82.033104 c 0.13935,5.418104 0.27802,10.835376 0.41567,16.251704 0.13761,5.416402 0.17117,24.066442 0.25519,36.098272"
         inkscape:export-xdpi="1431.4753"
         inkscape:export-ydpi="1431.4753" />
      <circle
         r="2.691395"
         cy="59.137325"
         cx="-102.40781"
         id="path952-46"
         style="fill:#000000;fill-opacity:1;stroke:none;stroke-width:3.10737991;stroke-linecap:round;stroke-linejoin:round;stroke-miterlimit:4;stroke-dasharray:none;stroke-opacity:1;paint-order:stroke markers fill"
         inkscape:export-xdpi="1431.4753"
         inkscape:export-ydpi="1431.4753" />
      <circle
         style="fill:#000000;fill-opacity:1;stroke:none;stroke-width:3.10737991;stroke-linecap:round;stroke-linejoin:round;stroke-miterlimit:4;stroke-dasharray:none;stroke-opacity:1;paint-order:stroke markers fill"
         id="path952-46-3"
         cx="-115.72354"
         cy="58.583107"
         r="2.691395"
         inkscape:export-xdpi="1431.4753"
         inkscape:export-ydpi="1431.4753" />
      <path
         style="fill:none;stroke:#000000;stroke-width:2.22531009;stroke-linecap:round;stroke-linejoin:miter;stroke-miterlimit:4;stroke-dasharray:none;stroke-opacity:1"
         d="m -107.36806,71.635661 c -0.0608,2.353698 -0.0809,4.708448 -0.0602,7.062841 0.0233,2.657296 0.0986,5.314136 0.22571,7.968492"
         id="path1101"
         inkscape:connector-curvature="0"
         inkscape:path-effect="#path-effect1103"
         inkscape:original-d="m -107.36806,71.635661 c -0.0193,2.355175 -0.0391,4.709481 -0.0602,7.062841 -0.0208,2.353361 0.15129,5.31326 0.22571,7.968492"
         inkscape:export-xdpi="1431.4753"
         inkscape:export-ydpi="1431.4753" />
      <path
         inkscape:original-d="m -99.769659,79.06848 c -2.355211,-0.0189 -4.709471,-0.03968 -7.062831,-0.06009 -2.35335,-0.0189 -5.31326,0.151181 -7.96849,0.225638"
         inkscape:path-effect="#path-effect1122"
         inkscape:connector-curvature="0"
         id="path1101-2"
         d="m -99.769659,79.06848 c -2.353691,-0.06075 -4.708441,-0.08078 -7.062831,-0.06009 -2.65729,0.02335 -5.31413,0.09858 -7.96849,0.225638"
         style="fill:none;stroke:#000000;stroke-width:2.22531009;stroke-linecap:round;stroke-linejoin:miter;stroke-miterlimit:4;stroke-dasharray:none;stroke-opacity:1"
         inkscape:export-xdpi="1431.4753"
         inkscape:export-ydpi="1431.4753" />
      <circle
         style="fill:#000000;fill-opacity:1;stroke:none;stroke-width:3.10737991;stroke-linecap:round;stroke-linejoin:round;stroke-miterlimit:4;stroke-dasharray:none;stroke-opacity:1;paint-order:stroke markers fill"
         id="path952-46-5"
         cx="-103.66809"
         cy="98.085815"
         r="2.691395"
         transform="rotate(-1.2010595)"
         inkscape:export-xdpi="1431.4753"
         inkscape:export-ydpi="1431.4753" />
      <circle
         r="2.691395"
         cy="97.513084"
         cx="-123.30468"
         id="path952-46-3-0"
         style="fill:#000000;fill-opacity:1;stroke:none;stroke-width:3.10737991;stroke-linecap:round;stroke-linejoin:round;stroke-miterlimit:4;stroke-dasharray:none;stroke-opacity:1;paint-order:stroke markers fill"
         transform="rotate(-1.2010595)"
         inkscape:export-xdpi="1431.4753"
         inkscape:export-ydpi="1431.4753" />
      <path
         style="fill:none;stroke:#000000;stroke-width:2.22531009;stroke-linecap:round;stroke-linejoin:miter;stroke-miterlimit:4;stroke-dasharray:none;stroke-opacity:1"
         d="m -135.97975,143.50776 c 2.4779,-2.46027 5.82326,-4.02889 9.29932,-4.3604 3.12323,-0.29786 6.33375,0.39799 9.05338,1.96223 2.71964,1.56424 4.93549,3.98946 6.2485,6.83889"
         id="path1220"
         inkscape:connector-curvature="0"
         inkscape:path-effect="#path-effect1222"
         inkscape:original-d="m -135.97975,143.50776 c 3.53466,-1.06594 5.83312,-3.29265 9.29932,-4.3604 3.4662,-1.06764 10.20214,5.86832 15.30188,8.80112"
         sodipodi:nodetypes="csc"
         inkscape:export-xdpi="1431.4753"
         inkscape:export-ydpi="1431.4753" />
      <path
         style="fill:none;stroke:#000000;stroke-width:2.22531009;stroke-linecap:round;stroke-linejoin:miter;stroke-miterlimit:4;stroke-dasharray:none;stroke-opacity:1"
         d="m -102.97447,141.39777 c 1.13791,0.0993 2.29481,-0.0237 3.38636,-0.36019 1.315762,-0.4056 2.534456,-1.12247 3.528246,-2.07542"
         id="path1224"
         inkscape:connector-curvature="0"
         inkscape:path-effect="#path-effect1226"
         inkscape:original-d="m -102.97447,141.39777 c 1.38451,0.20825 1.86526,-0.56705 3.38636,-0.36019 1.521097,0.20674 2.353055,-1.38274 3.528246,-2.07542"
         sodipodi:nodetypes="csc"
         inkscape:export-xdpi="1431.4753"
         inkscape:export-ydpi="1431.4753" />
      <path
         style="fill:none;stroke:#000000;stroke-width:2.22531009;stroke-linecap:round;stroke-linejoin:miter;stroke-miterlimit:4;stroke-dasharray:none;stroke-opacity:1"
         d="m -101.90254,147.92418 c 0.93943,0.16569 1.90212,0.19888 2.850726,0.0983 0.943492,-0.10004 1.872859,-0.33239 2.752422,-0.68814"
         id="path1228"
         inkscape:connector-curvature="0"
         inkscape:path-effect="#path-effect1230"
         inkscape:original-d="m -101.90254,147.92418 c 1.14774,0.034 1.70477,0.0665 2.850726,0.0983 1.145957,0.0302 1.606473,-0.0302 2.752422,-0.68814"
         sodipodi:nodetypes="ccc"
         inkscape:export-xdpi="1431.4753"
         inkscape:export-ydpi="1431.4753" />
      <path
         style="fill:#ffffff;fill-opacity:1;stroke:#000000;stroke-width:2.22531009;stroke-linecap:round;stroke-linejoin:round;stroke-miterlimit:4;stroke-dasharray:none;stroke-opacity:1"
         d="m -111.37856,147.94848 c -0.84087,1.5215 -2.02114,2.8542 -3.42985,3.87281 -2.20583,1.59499 -4.97357,2.39585 -7.69029,2.22523 -2.71672,-0.17061 -5.36251,-1.31146 -7.35146,-3.16989 0.37588,-1.1257 0.9436,-2.18707 1.67131,-3.12457 1.98706,-2.55991 5.2085,-4.11415 8.44889,-4.07632 3.24038,0.0378 6.42465,1.66687 8.3514,4.27248 z"
         id="path1236"
         inkscape:connector-curvature="0"
         inkscape:path-effect="#path-effect1238"
         inkscape:original-d="m -111.37856,147.94848 c 0,0 -2.28568,2.58274 -3.42985,3.87281 -1.14419,1.29006 -15.04175,-0.94466 -15.04175,-0.94466 0,0 1.1151,-2.08218 1.67131,-3.12457 0.55621,-1.04247 16.80029,0.19616 16.80029,0.19616 z"
         inkscape:export-xdpi="1431.4753"
         inkscape:export-ydpi="1431.4753" />
      <circle
         transform="rotate(-1.2010595)"
         style="fill:#000000;fill-opacity:1;stroke:none;stroke-width:3.10737991;stroke-linecap:round;stroke-linejoin:round;stroke-miterlimit:4;stroke-dasharray:none;stroke-opacity:1;paint-order:stroke markers fill"
         id="path952-46-3-0-1"
         cx="-123.70835"
         cy="146.31119"
         r="2.691395"
         inkscape:export-xdpi="1431.4753"
         inkscape:export-ydpi="1431.4753" />
    </g>
  </g>
</svg>
